<svg xmlns="http://www.w3.org/2000/svg" width="265" height="89" fill="none"><path fill="#E55725" d="M14.395 0v14.4h-7.2V0h7.2Z"/><path fill="#E55725" d="M21.59 0v14.4h-7.2V0h7.2Z"/><path fill="#E55725" d="M28.786 0v14.4h-7.2V0h7.2Z"/><path fill="#E55725" d="M35.981 0v14.4h-7.2V0h7.2Z"/><path fill="#E55725" d="M43.177 0v14.4h-7.2V0h7.2Z"/><path fill="#E55725" d="M50.372 0v14.4h-7.2V0h7.2Z"/><path fill="#E55725" d="M55.407 5.16V16.8h-.96V6.12h-4.14v-.96h5.1Zm-1.92 1.92v9.72h-.96V8.04h-2.22v-.96h3.18ZM71.958 0v14.4h-7.2V0h7.2Z"/><path fill="#E55725" d="M79.153 0v14.4h-7.2V0h7.2Z"/><path fill="#E55725" d="M86.348 0v14.4h-7.2V0h7.2Z"/><path fill="#E55725" d="M93.544 0v14.4h-7.2V0h7.2Z"/><path fill="#E55725" d="M100.739 0v14.4h-7.2V0h7.2Z"/><path fill="#E55725" d="M107.934 0v14.4h-7.2V0h7.2Z"/><path fill="#E55725" d="M112.97 5.16V16.8h-.96V6.12h-4.14v-.96h5.1Zm-1.92 1.92v9.72h-.96V8.04h-2.22v-.96h3.18ZM129.52 0v14.4h-7.2V0h7.2Z"/><path fill="#E55725" d="M136.716 0v14.4h-7.2V0h7.2Z"/><path fill="#E55725" d="M141.751 5.16V16.8h-.96V6.12h-4.14v-.96h5.1Zm-1.92 1.92v9.72h-.96V8.04h-2.22v-.96h3.18ZM179.887 0v14.4h-7.199V0h7.199Z"/><path fill="#E55725" d="M187.083 0v14.4h-7.2V0h7.2Z"/><path fill="#E55725" d="M192.118 5.16V16.8h-.96V6.12h-4.14v-.96h5.1Zm-1.92 1.92v9.72h-.96V8.04h-2.22v-.96h3.18ZM7.2 16v14.4H0V16h7.2Z"/><path fill="#E55725" d="M14.395 16v14.4h-7.2V16h7.2Zm7.255 5.16v.96h-4.14V32.8h-.96V21.16h5.1Zm0 1.92v.96h-2.22v8.76h-.96v-9.72h3.18Z"/><path fill="#E55725" d="M28.846 21.16v.96h-7.32v-.96h7.32Zm0 1.92v.96h-7.32v-.96h7.32Z"/><path fill="#E55725" d="M36.041 21.16v.96h-7.32v-.96h7.32Zm0 1.92v.96h-7.32v-.96h7.32Z"/><path fill="#E55725" d="M43.237 21.16v.96h-7.32v-.96h7.32Zm0 1.92v.96h-7.32v-.96h7.32Z"/><path fill="#E55725" d="M50.432 21.16v.96h-7.32v-.96h7.32Zm0 1.92v.96h-7.32v-.96h7.32Z"/><path fill="#E55725" d="M55.407 14.8v9.24h-5.1v-.96h4.14V14.8h.96Zm-1.92 0v7.32h-3.18v-.96h2.22V14.8h.96ZM71.958 16v14.4h-7.2V16h7.2Z"/><path fill="#E55725" d="M79.153 16v14.4h-7.2V16h7.2Zm7.255 5.16v.96h-4.14V32.8h-.96V21.16h5.1Zm0 1.92v.96h-2.22v8.76h-.96v-9.72h3.18Z"/><path fill="#E55725" d="M93.604 21.16v.96h-7.32v-.96h7.32Zm0 1.92v.96h-7.32v-.96h7.32Z"/><path fill="#E55725" d="M100.799 21.16v.96h-7.32v-.96h7.32Zm0 1.92v.96h-7.32v-.96h7.32Z"/><path fill="#E55725" d="M107.934 16v14.4h-7.2V16h7.2Z"/><path fill="#E55725" d="M115.13 16v14.4h-7.2V16h7.2Z"/><path fill="#E55725" d="M120.165 21.16V32.8h-.96V22.12h-4.14v-.96h5.1Zm-1.92 1.92v9.72h-.96v-8.76h-2.22v-.96h3.18ZM129.52 16v14.4h-7.2V16h7.2Z"/><path fill="#E55725" d="M136.716 16v14.4h-7.2V16h7.2Zm5.035-1.2v18h-.96v-18h.96Zm-1.92 0v18h-.96v-18h.96Zm40.056 1.2v14.4h-7.199V16h7.199Z"/><path fill="#E55725" d="M187.083 16v14.4h-7.2V16h7.2Zm5.035-1.2v18h-.96v-18h.96Zm-1.92 0v18h-.96v-18h.96ZM7.2 32v14.4H0V32h7.2Z"/><path fill="#E55725" d="M14.395 32v14.4h-7.2V32h7.2Zm5.035-1.2v18h-.96v-18h.96Zm-1.92 0v18h-.96v-18h.96ZM43.177 32v14.4h-7.2V32h7.2Z"/><path fill="#E55725" d="M50.372 32v14.4h-7.2V32h7.2Z"/><path fill="#E55725" d="M57.567 32v14.4h-7.2V32h7.2Z"/><path fill="#E55725" d="M62.602 37.16V48.8h-.96V38.12h-4.14v-.96h5.1Zm-1.92 1.92v9.72h-.96v-8.76h-2.22v-.96h3.18ZM71.958 32v14.4h-7.2V32h7.2Z"/><path fill="#E55725" d="M79.153 32v14.4h-7.2V32h7.2Z"/><path fill="#E55725" d="M86.348 32v14.4h-7.2V32h7.2Z"/><path fill="#E55725" d="M93.544 32v14.4h-7.2V32h7.2Z"/><path fill="#E55725" d="M100.739 32v14.4h-7.2V32h7.2Z"/><path fill="#E55725" d="M107.934 32v14.4h-7.2V32h7.2Zm7.256 5.16v.96h-4.14V48.8h-.96V37.16h5.1Zm0 1.92v.96h-2.22v8.76h-.96v-9.72h3.18Z"/><path fill="#E55725" d="M120.165 30.8v9.24h-5.1v-.96h4.14V30.8h.96Zm-1.92 0v7.32h-3.18v-.96h2.22V30.8h.96ZM129.52 32v14.4h-7.2V32h7.2Z"/><path fill="#E55725" d="M136.716 32v14.4h-7.2V32h7.2Zm5.035-1.2v18h-.96v-18h.96Zm-1.92 0v18h-.96v-18h.96Zm18.471 1.2v14.4h-7.2V32h7.2Z"/><path fill="#E55725" d="M163.337 37.16V48.8h-.96V38.12h-4.14v-.96h5.1Zm-1.92 1.92v9.72h-.96v-8.76h-2.22v-.96h3.18Zm18.47-7.08v14.4h-7.199V32h7.199Z"/><path fill="#E55725" d="M187.083 32v14.4h-7.2V32h7.2Zm5.035-1.2v18h-.96v-18h.96Zm-1.92 0v18h-.96v-18h.96ZM7.2 48v14.4H0V48h7.2Z"/><path fill="#E55725" d="M14.395 48v14.4h-7.2V48h7.2Zm5.035-1.2v18h-.96v-18h.96Zm-1.92 0v18h-.96v-18h.96ZM50.372 48v14.4h-7.2V48h7.2Z"/><path fill="#E55725" d="M57.567 48v14.4h-7.2V48h7.2Zm5.035-1.2v18h-.96v-18h.96Zm-1.92 0v18h-.96v-18h.96ZM71.958 48v14.4h-7.2V48h7.2Z"/><path fill="#E55725" d="M79.153 48v14.4h-7.2V48h7.2Zm7.255 5.16v.96h-4.14V64.8h-.96V53.16h5.1Zm0 1.92v.96h-2.22v8.76h-.96v-9.72h3.18Z"/><path fill="#E55725" d="M93.604 53.16v.96h-7.32v-.96h7.32Zm0 1.92v.96h-7.32v-.96h7.32Z"/><path fill="#E55725" d="M100.799 53.16v.96h-7.32v-.96h7.32Zm0 1.92v.96h-7.32v-.96h7.32Z"/><path fill="#E55725" d="M107.934 48v14.4h-7.2V48h7.2Z"/><path fill="#E55725" d="M115.13 48v14.4h-7.2V48h7.2Z"/><path fill="#E55725" d="M120.165 53.16V64.8h-.96V54.12h-4.14v-.96h5.1Zm-1.92 1.92v9.72h-.96v-8.76h-2.22v-.96h3.18ZM129.52 48v14.4h-7.2V48h7.2Z"/><path fill="#E55725" d="M136.716 48v14.4h-7.2V48h7.2Zm5.035-1.2v18h-.96v-18h.96Zm-1.92 0v18h-.96v-18h.96Zm11.275 1.2v14.4h-7.2V48h7.2Z"/><path fill="#E55725" d="M158.302 48v14.4h-7.2V48h7.2Z"/><path fill="#E55725" d="M165.497 48v14.4h-7.2V48h7.2Z"/><path fill="#E55725" d="M170.532 53.16V64.8h-.96V54.12h-4.14v-.96h5.1Zm-1.92 1.92v9.72h-.96v-8.76h-2.22v-.96h3.18ZM179.887 48v14.4h-7.199V48h7.199Z"/><path fill="#E55725" d="M187.083 48v14.4h-7.2V48h7.2Zm5.035-1.2v18h-.96v-18h.96Zm-1.92 0v18h-.96v-18h.96ZM3.12 62.8v8.28h4.14v.96h-5.1V62.8h.96Zm1.92 0v6.36h2.22v.96H4.08V62.8h.96Z"/><path fill="#E55725" d="M14.395 64v14.4h-7.2V64h7.2Z"/><path fill="#E55725" d="M21.59 64v14.4h-7.2V64h7.2Z"/><path fill="#E55725" d="M28.786 64v14.4h-7.2V64h7.2Z"/><path fill="#E55725" d="M35.981 64v14.4h-7.2V64h7.2Z"/><path fill="#E55725" d="M43.177 64v14.4h-7.2V64h7.2Z"/><path fill="#E55725" d="M50.372 64v14.4h-7.2V64h7.2Zm7.255 5.16v.96h-4.14V80.8h-.96V69.16h5.1Zm0 1.92v.96h-2.22v8.76h-.96v-9.72h3.18Z"/><path fill="#E55725" d="M62.602 62.8v9.24h-5.1v-.96h4.14V62.8h.96Zm-1.92 0v7.32h-3.18v-.96h2.22V62.8h.96ZM71.958 64v14.4h-7.2V64h7.2Z"/><path fill="#E55725" d="M79.153 64v14.4h-7.2V64h7.2Zm5.035-1.2v18h-.96v-18h.96Zm-1.92 0v18h-.96v-18h.96Zm25.666 1.2v14.4h-7.2V64h7.2Z"/><path fill="#E55725" d="M115.13 64v14.4h-7.2V64h7.2Zm5.035-1.2v18h-.96v-18h.96Zm-1.92 0v18h-.96v-18h.96Zm7.195 0v8.28h4.14v.96h-5.1V62.8h.96Zm1.92 0v6.36h2.22v.96h-3.18V62.8h.96Z"/><path fill="#E55725" d="M136.716 64v14.4h-7.2V64h7.2Z"/><path fill="#E55725" d="M143.911 64v14.4h-7.2V64h7.2Z"/><path fill="#E55725" d="M151.106 64v14.4h-7.2V64h7.2Zm7.256 5.16v.96h-4.14V80.8h-.96V69.16h5.1Zm0 1.92v.96h-2.22v8.76h-.96v-9.72h3.18Z"/><path fill="#E55725" d="M165.497 64v14.4h-7.2V64h7.2Z"/><path fill="#E55725" d="M172.692 64v14.4h-7.2V64h7.2Z"/><path fill="#E55725" d="M179.887 64v14.4h-7.199V64h7.199Zm7.256 5.16v.96h-4.14V80.8h-.96V69.16h5.1Zm0 1.92v.96h-2.22v8.76h-.96v-9.72h3.18Z"/><path fill="#E55725" d="M192.118 62.8v9.24h-5.1v-.96h4.14V62.8h.96Zm-1.92 0v7.32h-3.18v-.96h2.22V62.8h.96Zm25.666 1.2v14.4h-7.2V64h7.2Z"/><path fill="#E55725" d="M223.059 64v14.4h-7.2V64h7.2Z"/><path fill="#E55725" d="M230.255 64v14.4h-7.2V64h7.2Z"/><path fill="#E55725" d="M237.45 64v14.4h-7.2V64h7.2Z"/><path fill="#E55725" d="M244.645 64v14.4h-7.2V64h7.2Z"/><path fill="#E55725" d="M251.841 64v14.4h-7.2V64h7.2Z"/><path fill="#E55725" d="M259.036 64v14.4h-7.2V64h7.2Z"/><path fill="#E55725" d="M264.071 69.16V80.8h-.96V70.12h-4.14v-.96h5.1Zm-1.92 1.92v9.72h-.96v-8.76h-2.22v-.96h3.18ZM10.315 78.8v8.28h4.14v.96h-5.1V78.8h.96Zm1.92 0v6.36h2.22v.96h-3.18V78.8h.96Z"/><path fill="#E55725" d="M21.65 85.16v.96h-7.32v-.96h7.32Zm0 1.92v.96h-7.32v-.96h7.32Z"/><path fill="#E55725" d="M28.846 85.16v.96h-7.32v-.96h7.32Zm0 1.92v.96h-7.32v-.96h7.32Z"/><path fill="#E55725" d="M36.041 85.16v.96h-7.32v-.96h7.32Zm0 1.92v.96h-7.32v-.96h7.32Z"/><path fill="#E55725" d="M43.237 85.16v.96h-7.32v-.96h7.32Zm0 1.92v.96h-7.32v-.96h7.32Z"/><path fill="#E55725" d="M50.432 85.16v.96h-7.32v-.96h7.32Zm0 1.92v.96h-7.32v-.96h7.32Z"/><path fill="#E55725" d="M55.407 78.8v9.24h-5.1v-.96h4.14V78.8h.96Zm-1.92 0v7.32h-3.18v-.96h2.22V78.8h.96Zm14.391 0v8.28h4.14v.96h-5.1V78.8h.96Zm1.92 0v6.36h2.22v.96h-3.18V78.8h.96Z"/><path fill="#E55725" d="M79.213 85.16v.96h-7.32v-.96h7.32Zm0 1.92v.96h-7.32v-.96h7.32Z"/><path fill="#E55725" d="M84.188 78.8v9.24h-5.1v-.96h4.14V78.8h.96Zm-1.92 0v7.32h-3.18v-.96h2.22V78.8h.96Zm21.586 0v8.28h4.14v.96h-5.1V78.8h.96Zm1.92 0v6.36h2.22v.96h-3.18V78.8h.96Z"/><path fill="#E55725" d="M115.19 85.16v.96h-7.32v-.96h7.32Zm0 1.92v.96h-7.32v-.96h7.32Z"/><path fill="#E55725" d="M120.165 78.8v9.24h-5.1v-.96h4.14V78.8h.96Zm-1.92 0v7.32h-3.18v-.96h2.22V78.8h.96Zm14.391 0v8.28h4.14v.96h-5.1V78.8h.96Zm1.92 0v6.36h2.22v.96h-3.18V78.8h.96Z"/><path fill="#E55725" d="M143.971 85.16v.96h-7.32v-.96h7.32Zm0 1.92v.96h-7.32v-.96h7.32Z"/><path fill="#E55725" d="M151.166 85.16v.96h-7.32v-.96h7.32Zm0 1.92v.96h-7.32v-.96h7.32Z"/><path fill="#E55725" d="M156.142 78.8v9.24h-5.1v-.96h4.14V78.8h.96Zm-1.92 0v7.32h-3.18v-.96h2.22V78.8h.96Zm7.195 0v8.28h4.14v.96h-5.1V78.8h.96Zm1.92 0v6.36h2.22v.96h-3.18V78.8h.96Z"/><path fill="#E55725" d="M172.752 85.16v.96h-7.32v-.96h7.32Zm0 1.92v.96h-7.32v-.96h7.32Z"/><path fill="#E55725" d="M179.947 85.16v.96h-7.319v-.96h7.319Zm0 1.92v.96h-7.319v-.96h7.319Z"/><path fill="#E55725" d="M184.923 78.8v9.24h-5.1v-.96h4.14V78.8h.96Zm-1.92 0v7.32h-3.18v-.96h2.22V78.8h.96Zm28.781 0v8.28h4.14v.96h-5.1V78.8h.96Zm1.92 0v6.36h2.22v.96h-3.18V78.8h.96Z"/><path fill="#E55725" d="M223.119 85.16v.96h-7.32v-.96h7.32Zm0 1.92v.96h-7.32v-.96h7.32Z"/><path fill="#E55725" d="M230.315 85.16v.96h-7.32v-.96h7.32Zm0 1.92v.96h-7.32v-.96h7.32Z"/><path fill="#E55725" d="M237.51 85.16v.96h-7.32v-.96h7.32Zm0 1.92v.96h-7.32v-.96h7.32Z"/><path fill="#E55725" d="M244.705 85.16v.96h-7.32v-.96h7.32Zm0 1.92v.96h-7.32v-.96h7.32Z"/><path fill="#E55725" d="M251.901 85.16v.96h-7.32v-.96h7.32Zm0 1.92v.96h-7.32v-.96h7.32Z"/><path fill="#E55725" d="M259.096 85.16v.96h-7.32v-.96h7.32Zm0 1.92v.96h-7.32v-.96h7.32Z"/><path fill="#E55725" d="M264.071 78.8v9.24h-5.1v-.96h4.14V78.8h.96Zm-1.92 0v7.32h-3.18v-.96h2.22V78.8h.96Z"/></svg>